<?xml version="1.0" encoding="UTF-8" standalone="no"?>
<!DOCTYPE svg PUBLIC "-//W3C//DTD SVG 1.1//EN"
 "http://www.w3.org/Graphics/SVG/1.1/DTD/svg11.dtd">
<!-- Generated by graphviz version 2.47.3 (20210619.1520)
 -->
<!-- Title: dependencies Pages: 1 -->
<svg width="352pt" height="174pt"
 viewBox="0.00 0.00 352.00 173.80" xmlns="http://www.w3.org/2000/svg" xmlns:xlink="http://www.w3.org/1999/xlink">
<g id="graph0" class="graph" transform="scale(1 1) rotate(0) translate(4 169.8)">
<title>dependencies</title>
<polygon fill="white" stroke="transparent" points="-4,4 -4,-169.8 348,-169.8 348,4 -4,4"/>
<text text-anchor="middle" x="172" y="-8.2" font-family="sans-serif" font-size="14.00">dependencies</text>
<g id="clust1" class="cluster">
<title>cluster_CheckinModule</title>
<polygon fill="none" stroke="black" stroke-dasharray="1,5" points="8,-32.8 8,-157.8 336,-157.8 336,-32.8 8,-32.8"/>
</g>
<g id="clust6" class="cluster">
<title>cluster_CheckinModule_providers</title>
<polygon fill="none" stroke="black" points="16,-40.8 16,-92.8 328,-92.8 328,-40.8 16,-40.8"/>
</g>
<!-- CheckinService -->
<g id="node1" class="node">
<title>CheckinService</title>
<ellipse fill="#fdb462" stroke="black" cx="248" cy="-66.8" rx="72.35" ry="18"/>
<text text-anchor="middle" x="248" y="-62.6" font-family="Times,serif" font-size="14.00">CheckinService</text>
</g>
<!-- CheckinModule -->
<g id="node3" class="node">
<title>CheckinModule</title>
<polygon fill="#8dd3c7" stroke="black" points="222.21,-149.8 219.21,-153.8 198.21,-153.8 195.21,-149.8 115.79,-149.8 115.79,-113.8 222.21,-113.8 222.21,-149.8"/>
<text text-anchor="middle" x="169" y="-127.6" font-family="Times,serif" font-size="14.00">CheckinModule</text>
</g>
<!-- CheckinService&#45;&gt;CheckinModule -->
<g id="edge1" class="edge">
<title>CheckinService&#45;&gt;CheckinModule</title>
<path fill="none" stroke="black" d="M198.96,-80.27C198.96,-80.27 198.96,-103.66 198.96,-103.66"/>
<polygon fill="black" stroke="black" points="195.46,-103.66 198.96,-113.66 202.46,-103.66 195.46,-103.66"/>
</g>
<!-- PrismaService -->
<g id="node2" class="node">
<title>PrismaService</title>
<ellipse fill="#fdb462" stroke="black" cx="91" cy="-66.8" rx="66.63" ry="18"/>
<text text-anchor="middle" x="91" y="-62.6" font-family="Times,serif" font-size="14.00">PrismaService</text>
</g>
<!-- PrismaService&#45;&gt;CheckinModule -->
<g id="edge2" class="edge">
<title>PrismaService&#45;&gt;CheckinModule</title>
<path fill="none" stroke="black" d="M136.85,-79.95C136.85,-79.95 136.85,-103.49 136.85,-103.49"/>
<polygon fill="black" stroke="black" points="133.36,-103.49 136.85,-113.49 140.36,-103.49 133.36,-103.49"/>
</g>
</g>
</svg>
