<?xml version="1.0" encoding="UTF-8" standalone="no"?>
<!DOCTYPE svg PUBLIC "-//W3C//DTD SVG 1.1//EN"
 "http://www.w3.org/Graphics/SVG/1.1/DTD/svg11.dtd">
<!-- Generated by graphviz version 2.47.3 (20210619.1520)
 -->
<!-- Title: dependencies Pages: 1 -->
<svg width="358pt" height="174pt"
 viewBox="0.00 0.00 358.00 173.80" xmlns="http://www.w3.org/2000/svg" xmlns:xlink="http://www.w3.org/1999/xlink">
<g id="graph0" class="graph" transform="scale(1 1) rotate(0) translate(4 169.8)">
<title>dependencies</title>
<polygon fill="white" stroke="transparent" points="-4,4 -4,-169.8 354,-169.8 354,4 -4,4"/>
<text text-anchor="middle" x="175" y="-8.2" font-family="sans-serif" font-size="14.00">dependencies</text>
<g id="clust1" class="cluster">
<title>cluster_TeamPartnerModule</title>
<polygon fill="none" stroke="black" stroke-dasharray="1,5" points="8,-32.8 8,-157.8 342,-157.8 342,-32.8 8,-32.8"/>
</g>
<g id="clust3" class="cluster">
<title>cluster_TeamPartnerModule_imports</title>
<polygon fill="none" stroke="black" points="220,-40.8 220,-92.8 334,-92.8 334,-40.8 220,-40.8"/>
</g>
<g id="clust6" class="cluster">
<title>cluster_TeamPartnerModule_providers</title>
<polygon fill="none" stroke="black" points="16,-40.8 16,-92.8 212,-92.8 212,-40.8 16,-40.8"/>
</g>
<!-- PrismaModule -->
<g id="node1" class="node">
<title>PrismaModule</title>
<polygon fill="#8dd3c7" stroke="black" points="326.43,-84.8 323.43,-88.8 302.43,-88.8 299.43,-84.8 227.57,-84.8 227.57,-48.8 326.43,-48.8 326.43,-84.8"/>
<text text-anchor="middle" x="277" y="-62.6" font-family="Times,serif" font-size="14.00">PrismaModule</text>
</g>
<!-- TeamPartnerModule -->
<g id="node2" class="node">
<title>TeamPartnerModule</title>
<polygon fill="#8dd3c7" stroke="black" points="256.85,-149.8 253.85,-153.8 232.85,-153.8 229.85,-149.8 125.15,-149.8 125.15,-113.8 256.85,-113.8 256.85,-149.8"/>
<text text-anchor="middle" x="191" y="-127.6" font-family="Times,serif" font-size="14.00">TeamPartnerModule</text>
</g>
<!-- PrismaModule&#45;&gt;TeamPartnerModule -->
<g id="edge1" class="edge">
<title>PrismaModule&#45;&gt;TeamPartnerModule</title>
<path fill="none" stroke="black" d="M242.35,-84.91C242.35,-84.91 242.35,-103.79 242.35,-103.79"/>
<polygon fill="black" stroke="black" points="238.85,-103.79 242.35,-113.79 245.85,-103.79 238.85,-103.79"/>
</g>
<!-- TeamPartnerService -->
<g id="node3" class="node">
<title>TeamPartnerService</title>
<ellipse fill="#fdb462" stroke="black" cx="114" cy="-66.8" rx="89.72" ry="18"/>
<text text-anchor="middle" x="114" y="-62.6" font-family="Times,serif" font-size="14.00">TeamPartnerService</text>
</g>
<!-- TeamPartnerService&#45;&gt;TeamPartnerModule -->
<g id="edge2" class="edge">
<title>TeamPartnerService&#45;&gt;TeamPartnerModule</title>
<path fill="none" stroke="black" d="M164.47,-81.88C164.47,-81.88 164.47,-103.56 164.47,-103.56"/>
<polygon fill="black" stroke="black" points="160.97,-103.56 164.47,-113.56 167.97,-103.56 160.97,-103.56"/>
</g>
</g>
</svg>
