<?xml version="1.0" encoding="UTF-8" standalone="no"?>
<!DOCTYPE svg PUBLIC "-//W3C//DTD SVG 1.1//EN"
 "http://www.w3.org/Graphics/SVG/1.1/DTD/svg11.dtd">
<!-- Generated by graphviz version 2.47.3 (20210619.1520)
 -->
<!-- Title: dependencies Pages: 1 -->
<svg width="377pt" height="174pt"
 viewBox="0.00 0.00 377.00 173.80" xmlns="http://www.w3.org/2000/svg" xmlns:xlink="http://www.w3.org/1999/xlink">
<g id="graph0" class="graph" transform="scale(1 1) rotate(0) translate(4 169.8)">
<title>dependencies</title>
<polygon fill="white" stroke="transparent" points="-4,4 -4,-169.8 373,-169.8 373,4 -4,4"/>
<text text-anchor="middle" x="184.5" y="-8.2" font-family="sans-serif" font-size="14.00">dependencies</text>
<g id="clust1" class="cluster">
<title>cluster_KeyresultsModule</title>
<polygon fill="none" stroke="black" stroke-dasharray="1,5" points="8,-32.8 8,-157.8 361,-157.8 361,-32.8 8,-32.8"/>
</g>
<g id="clust6" class="cluster">
<title>cluster_KeyresultsModule_providers</title>
<polygon fill="none" stroke="black" points="16,-40.8 16,-92.8 353,-92.8 353,-40.8 16,-40.8"/>
</g>
<!-- KeyResultsService -->
<g id="node1" class="node">
<title>KeyResultsService</title>
<ellipse fill="#fdb462" stroke="black" cx="260" cy="-66.8" rx="84.52" ry="18"/>
<text text-anchor="middle" x="260" y="-62.6" font-family="Times,serif" font-size="14.00">KeyResultsService</text>
</g>
<!-- KeyresultsModule -->
<g id="node3" class="node">
<title>KeyresultsModule</title>
<polygon fill="#8dd3c7" stroke="black" points="234.92,-149.8 231.92,-153.8 210.92,-153.8 207.92,-149.8 115.08,-149.8 115.08,-113.8 234.92,-113.8 234.92,-149.8"/>
<text text-anchor="middle" x="175" y="-127.6" font-family="Times,serif" font-size="14.00">KeyresultsModule</text>
</g>
<!-- KeyResultsService&#45;&gt;KeyresultsModule -->
<g id="edge1" class="edge">
<title>KeyResultsService&#45;&gt;KeyresultsModule</title>
<path fill="none" stroke="black" d="M205.1,-80.58C205.1,-80.58 205.1,-103.35 205.1,-103.35"/>
<polygon fill="black" stroke="black" points="201.6,-103.35 205.1,-113.35 208.6,-103.35 201.6,-103.35"/>
</g>
<!-- PrismaService -->
<g id="node2" class="node">
<title>PrismaService</title>
<ellipse fill="#fdb462" stroke="black" cx="91" cy="-66.8" rx="66.63" ry="18"/>
<text text-anchor="middle" x="91" y="-62.6" font-family="Times,serif" font-size="14.00">PrismaService</text>
</g>
<!-- PrismaService&#45;&gt;KeyresultsModule -->
<g id="edge2" class="edge">
<title>PrismaService&#45;&gt;KeyresultsModule</title>
<path fill="none" stroke="black" d="M136.55,-80.27C136.55,-80.27 136.55,-103.66 136.55,-103.66"/>
<polygon fill="black" stroke="black" points="133.05,-103.66 136.55,-113.66 140.05,-103.66 133.05,-103.66"/>
</g>
</g>
</svg>
