<?xml version="1.0" encoding="UTF-8" standalone="no"?>
<!DOCTYPE svg PUBLIC "-//W3C//DTD SVG 1.1//EN"
 "http://www.w3.org/Graphics/SVG/1.1/DTD/svg11.dtd">
<!-- Generated by graphviz version 2.47.3 (20210619.1520)
 -->
<!-- Title: dependencies Pages: 1 -->
<svg width="302pt" height="174pt"
 viewBox="0.00 0.00 302.00 173.80" xmlns="http://www.w3.org/2000/svg" xmlns:xlink="http://www.w3.org/1999/xlink">
<g id="graph0" class="graph" transform="scale(1 1) rotate(0) translate(4 169.8)">
<title>dependencies</title>
<polygon fill="white" stroke="transparent" points="-4,4 -4,-169.8 298,-169.8 298,4 -4,4"/>
<text text-anchor="middle" x="147" y="-8.2" font-family="sans-serif" font-size="14.00">dependencies</text>
<g id="clust1" class="cluster">
<title>cluster_TeamModule</title>
<polygon fill="none" stroke="black" stroke-dasharray="1,5" points="8,-32.8 8,-157.8 286,-157.8 286,-32.8 8,-32.8"/>
</g>
<g id="clust6" class="cluster">
<title>cluster_TeamModule_providers</title>
<polygon fill="none" stroke="black" points="138,-40.8 138,-92.8 278,-92.8 278,-40.8 138,-40.8"/>
</g>
<g id="clust3" class="cluster">
<title>cluster_TeamModule_imports</title>
<polygon fill="none" stroke="black" points="16,-40.8 16,-92.8 130,-92.8 130,-40.8 16,-40.8"/>
</g>
<!-- PrismaModule -->
<g id="node1" class="node">
<title>PrismaModule</title>
<polygon fill="#8dd3c7" stroke="black" points="122.43,-84.8 119.43,-88.8 98.43,-88.8 95.43,-84.8 23.57,-84.8 23.57,-48.8 122.43,-48.8 122.43,-84.8"/>
<text text-anchor="middle" x="73" y="-62.6" font-family="Times,serif" font-size="14.00">PrismaModule</text>
</g>
<!-- TeamModule -->
<g id="node2" class="node">
<title>TeamModule</title>
<polygon fill="#8dd3c7" stroke="black" points="185.92,-149.8 182.92,-153.8 161.92,-153.8 158.92,-149.8 94.08,-149.8 94.08,-113.8 185.92,-113.8 185.92,-149.8"/>
<text text-anchor="middle" x="140" y="-127.6" font-family="Times,serif" font-size="14.00">TeamModule</text>
</g>
<!-- PrismaModule&#45;&gt;TeamModule -->
<g id="edge1" class="edge">
<title>PrismaModule&#45;&gt;TeamModule</title>
<path fill="none" stroke="black" d="M108.25,-84.91C108.25,-84.91 108.25,-103.79 108.25,-103.79"/>
<polygon fill="black" stroke="black" points="104.75,-103.79 108.25,-113.79 111.75,-103.79 104.75,-103.79"/>
</g>
<!-- TeamService -->
<g id="node3" class="node">
<title>TeamService</title>
<ellipse fill="#fdb462" stroke="black" cx="208" cy="-66.8" rx="61.95" ry="18"/>
<text text-anchor="middle" x="208" y="-62.6" font-family="Times,serif" font-size="14.00">TeamService</text>
</g>
<!-- TeamService&#45;&gt;TeamModule -->
<g id="edge2" class="edge">
<title>TeamService&#45;&gt;TeamModule</title>
<path fill="none" stroke="black" d="M165.87,-80.27C165.87,-80.27 165.87,-103.66 165.87,-103.66"/>
<polygon fill="black" stroke="black" points="162.37,-103.66 165.87,-113.66 169.37,-103.66 162.37,-103.66"/>
</g>
</g>
</svg>
