<?xml version="1.0" encoding="UTF-8" standalone="no"?>
<!DOCTYPE svg PUBLIC "-//W3C//DTD SVG 1.1//EN"
 "http://www.w3.org/Graphics/SVG/1.1/DTD/svg11.dtd">
<!-- Generated by graphviz version 2.47.3 (20210619.1520)
 -->
<!-- Title: dependencies Pages: 1 -->
<svg width="946pt" height="174pt"
 viewBox="0.00 0.00 946.00 173.80" xmlns="http://www.w3.org/2000/svg" xmlns:xlink="http://www.w3.org/1999/xlink">
<g id="graph0" class="graph" transform="scale(1 1) rotate(0) translate(4 169.8)">
<title>dependencies</title>
<polygon fill="white" stroke="transparent" points="-4,4 -4,-169.8 942,-169.8 942,4 -4,4"/>
<text text-anchor="middle" x="469" y="-8.2" font-family="sans-serif" font-size="14.00">dependencies</text>
<g id="clust1" class="cluster">
<title>cluster_AppModule</title>
<polygon fill="none" stroke="black" stroke-dasharray="1,5" points="8,-32.8 8,-157.8 930,-157.8 930,-32.8 8,-32.8"/>
</g>
<g id="clust3" class="cluster">
<title>cluster_AppModule_imports</title>
<polygon fill="none" stroke="black" points="154,-40.8 154,-92.8 922,-92.8 922,-40.8 154,-40.8"/>
</g>
<g id="clust6" class="cluster">
<title>cluster_AppModule_providers</title>
<polygon fill="none" stroke="black" points="16,-40.8 16,-92.8 146,-92.8 146,-40.8 16,-40.8"/>
</g>
<!-- CheckinModule -->
<g id="node1" class="node">
<title>CheckinModule</title>
<polygon fill="#8dd3c7" stroke="black" points="914.21,-84.8 911.21,-88.8 890.21,-88.8 887.21,-84.8 807.79,-84.8 807.79,-48.8 914.21,-48.8 914.21,-84.8"/>
<text text-anchor="middle" x="861" y="-62.6" font-family="Times,serif" font-size="14.00">CheckinModule</text>
</g>
<!-- AppModule -->
<g id="node7" class="node">
<title>AppModule</title>
<polygon fill="#8dd3c7" stroke="black" points="512.66,-149.8 509.66,-153.8 488.66,-153.8 485.66,-149.8 429.34,-149.8 429.34,-113.8 512.66,-113.8 512.66,-149.8"/>
<text text-anchor="middle" x="471" y="-127.6" font-family="Times,serif" font-size="14.00">AppModule</text>
</g>
<!-- CheckinModule&#45;&gt;AppModule -->
<g id="edge1" class="edge">
<title>CheckinModule&#45;&gt;AppModule</title>
<path fill="none" stroke="black" d="M861,-85.09C861,-107.01 861,-140.8 861,-140.8 861,-140.8 522.74,-140.8 522.74,-140.8"/>
<polygon fill="black" stroke="black" points="522.74,-137.3 512.74,-140.8 522.74,-144.3 522.74,-137.3"/>
</g>
<!-- KeyresultsModule -->
<g id="node2" class="node">
<title>KeyresultsModule</title>
<polygon fill="#8dd3c7" stroke="black" points="789.92,-84.8 786.92,-88.8 765.92,-88.8 762.92,-84.8 670.08,-84.8 670.08,-48.8 789.92,-48.8 789.92,-84.8"/>
<text text-anchor="middle" x="730" y="-62.6" font-family="Times,serif" font-size="14.00">KeyresultsModule</text>
</g>
<!-- KeyresultsModule&#45;&gt;AppModule -->
<g id="edge2" class="edge">
<title>KeyresultsModule&#45;&gt;AppModule</title>
<path fill="none" stroke="black" d="M730,-84.91C730,-104.14 730,-131.8 730,-131.8 730,-131.8 522.9,-131.8 522.9,-131.8"/>
<polygon fill="black" stroke="black" points="522.9,-128.3 512.9,-131.8 522.9,-135.3 522.9,-128.3"/>
</g>
<!-- ObjectiveModule -->
<g id="node3" class="node">
<title>ObjectiveModule</title>
<polygon fill="#8dd3c7" stroke="black" points="651.97,-84.8 648.97,-88.8 627.97,-88.8 624.97,-84.8 538.03,-84.8 538.03,-48.8 651.97,-48.8 651.97,-84.8"/>
<text text-anchor="middle" x="595" y="-62.6" font-family="Times,serif" font-size="14.00">ObjectiveModule</text>
</g>
<!-- ObjectiveModule&#45;&gt;AppModule -->
<g id="edge3" class="edge">
<title>ObjectiveModule&#45;&gt;AppModule</title>
<path fill="none" stroke="black" d="M595,-84.83C595,-101.2 595,-122.8 595,-122.8 595,-122.8 522.98,-122.8 522.98,-122.8"/>
<polygon fill="black" stroke="black" points="522.98,-119.3 512.98,-122.8 522.98,-126.3 522.98,-119.3"/>
</g>
<!-- PrismaModule -->
<g id="node4" class="node">
<title>PrismaModule</title>
<polygon fill="#8dd3c7" stroke="black" points="520.43,-84.8 517.43,-88.8 496.43,-88.8 493.43,-84.8 421.57,-84.8 421.57,-48.8 520.43,-48.8 520.43,-84.8"/>
<text text-anchor="middle" x="471" y="-62.6" font-family="Times,serif" font-size="14.00">PrismaModule</text>
</g>
<!-- PrismaModule&#45;&gt;AppModule -->
<g id="edge4" class="edge">
<title>PrismaModule&#45;&gt;AppModule</title>
<path fill="none" stroke="black" d="M471,-84.91C471,-84.91 471,-103.79 471,-103.79"/>
<polygon fill="black" stroke="black" points="467.5,-103.79 471,-113.79 474.5,-103.79 467.5,-103.79"/>
</g>
<!-- TeamModule -->
<g id="node5" class="node">
<title>TeamModule</title>
<polygon fill="#8dd3c7" stroke="black" points="403.92,-84.8 400.92,-88.8 379.92,-88.8 376.92,-84.8 312.08,-84.8 312.08,-48.8 403.92,-48.8 403.92,-84.8"/>
<text text-anchor="middle" x="358" y="-62.6" font-family="Times,serif" font-size="14.00">TeamModule</text>
</g>
<!-- TeamModule&#45;&gt;AppModule -->
<g id="edge5" class="edge">
<title>TeamModule&#45;&gt;AppModule</title>
<path fill="none" stroke="black" d="M358,-84.83C358,-101.2 358,-122.8 358,-122.8 358,-122.8 419.24,-122.8 419.24,-122.8"/>
<polygon fill="black" stroke="black" points="419.24,-126.3 429.24,-122.8 419.24,-119.3 419.24,-126.3"/>
</g>
<!-- TeamPartnerModule -->
<g id="node6" class="node">
<title>TeamPartnerModule</title>
<polygon fill="#8dd3c7" stroke="black" points="293.85,-84.8 290.85,-88.8 269.85,-88.8 266.85,-84.8 162.15,-84.8 162.15,-48.8 293.85,-48.8 293.85,-84.8"/>
<text text-anchor="middle" x="228" y="-62.6" font-family="Times,serif" font-size="14.00">TeamPartnerModule</text>
</g>
<!-- TeamPartnerModule&#45;&gt;AppModule -->
<g id="edge6" class="edge">
<title>TeamPartnerModule&#45;&gt;AppModule</title>
<path fill="none" stroke="black" d="M228,-84.91C228,-104.14 228,-131.8 228,-131.8 228,-131.8 419.23,-131.8 419.23,-131.8"/>
<polygon fill="black" stroke="black" points="419.23,-135.3 429.23,-131.8 419.23,-128.3 419.23,-135.3"/>
</g>
<!-- AppService -->
<g id="node8" class="node">
<title>AppService</title>
<ellipse fill="#fdb462" stroke="black" cx="81" cy="-66.8" rx="56.74" ry="18"/>
<text text-anchor="middle" x="81" y="-62.6" font-family="Times,serif" font-size="14.00">AppService</text>
</g>
<!-- AppService&#45;&gt;AppModule -->
<g id="edge7" class="edge">
<title>AppService&#45;&gt;AppModule</title>
<path fill="none" stroke="black" d="M81,-85.09C81,-107.01 81,-140.8 81,-140.8 81,-140.8 419.26,-140.8 419.26,-140.8"/>
<polygon fill="black" stroke="black" points="419.26,-144.3 429.26,-140.8 419.26,-137.3 419.26,-144.3"/>
</g>
</g>
</svg>
