<?xml version="1.0" encoding="UTF-8" standalone="no"?>
<!DOCTYPE svg PUBLIC "-//W3C//DTD SVG 1.1//EN"
 "http://www.w3.org/Graphics/SVG/1.1/DTD/svg11.dtd">
<!-- Generated by graphviz version 2.47.3 (20210619.1520)
 -->
<!-- Title: dependencies Pages: 1 -->
<svg width="485pt" height="174pt"
 viewBox="0.00 0.00 485.00 173.80" xmlns="http://www.w3.org/2000/svg" xmlns:xlink="http://www.w3.org/1999/xlink">
<g id="graph0" class="graph" transform="scale(1 1) rotate(0) translate(4 169.8)">
<title>dependencies</title>
<polygon fill="white" stroke="transparent" points="-4,4 -4,-169.8 481,-169.8 481,4 -4,4"/>
<text text-anchor="middle" x="238.5" y="-8.2" font-family="sans-serif" font-size="14.00">dependencies</text>
<g id="clust1" class="cluster">
<title>cluster_ObjectiveModule</title>
<polygon fill="none" stroke="black" stroke-dasharray="1,5" points="8,-32.8 8,-157.8 469,-157.8 469,-32.8 8,-32.8"/>
</g>
<g id="clust3" class="cluster">
<title>cluster_ObjectiveModule_imports</title>
<polygon fill="none" stroke="black" points="347,-40.8 347,-92.8 461,-92.8 461,-40.8 347,-40.8"/>
</g>
<g id="clust6" class="cluster">
<title>cluster_ObjectiveModule_providers</title>
<polygon fill="none" stroke="black" points="16,-40.8 16,-92.8 339,-92.8 339,-40.8 16,-40.8"/>
</g>
<!-- PrismaModule -->
<g id="node1" class="node">
<title>PrismaModule</title>
<polygon fill="#8dd3c7" stroke="black" points="453.43,-84.8 450.43,-88.8 429.43,-88.8 426.43,-84.8 354.57,-84.8 354.57,-48.8 453.43,-48.8 453.43,-84.8"/>
<text text-anchor="middle" x="404" y="-62.6" font-family="Times,serif" font-size="14.00">PrismaModule</text>
</g>
<!-- ObjectiveModule -->
<g id="node2" class="node">
<title>ObjectiveModule</title>
<polygon fill="#8dd3c7" stroke="black" points="309.97,-149.8 306.97,-153.8 285.97,-153.8 282.97,-149.8 196.03,-149.8 196.03,-113.8 309.97,-113.8 309.97,-149.8"/>
<text text-anchor="middle" x="253" y="-127.6" font-family="Times,serif" font-size="14.00">ObjectiveModule</text>
</g>
<!-- PrismaModule&#45;&gt;ObjectiveModule -->
<g id="edge1" class="edge">
<title>PrismaModule&#45;&gt;ObjectiveModule</title>
<path fill="none" stroke="black" d="M404,-84.91C404,-104.14 404,-131.8 404,-131.8 404,-131.8 320.09,-131.8 320.09,-131.8"/>
<polygon fill="black" stroke="black" points="320.09,-128.3 310.09,-131.8 320.09,-135.3 320.09,-128.3"/>
</g>
<!-- ObjectiveService -->
<g id="node3" class="node">
<title>ObjectiveService</title>
<ellipse fill="#fdb462" stroke="black" cx="253" cy="-66.8" rx="77.56" ry="18"/>
<text text-anchor="middle" x="253" y="-62.6" font-family="Times,serif" font-size="14.00">ObjectiveService</text>
</g>
<!-- ObjectiveService&#45;&gt;ObjectiveModule -->
<g id="edge2" class="edge">
<title>ObjectiveService&#45;&gt;ObjectiveModule</title>
<path fill="none" stroke="black" d="M253,-84.91C253,-84.91 253,-103.79 253,-103.79"/>
<polygon fill="black" stroke="black" points="249.5,-103.79 253,-113.79 256.5,-103.79 249.5,-103.79"/>
</g>
<!-- PrismaService -->
<g id="node4" class="node">
<title>PrismaService</title>
<ellipse fill="#fdb462" stroke="black" cx="91" cy="-66.8" rx="66.63" ry="18"/>
<text text-anchor="middle" x="91" y="-62.6" font-family="Times,serif" font-size="14.00">PrismaService</text>
</g>
<!-- PrismaService&#45;&gt;ObjectiveModule -->
<g id="edge3" class="edge">
<title>PrismaService&#45;&gt;ObjectiveModule</title>
<path fill="none" stroke="black" d="M91,-84.91C91,-104.14 91,-131.8 91,-131.8 91,-131.8 185.88,-131.8 185.88,-131.8"/>
<polygon fill="black" stroke="black" points="185.88,-135.3 195.88,-131.8 185.88,-128.3 185.88,-135.3"/>
</g>
</g>
</svg>
